<?xml version="1.0" encoding="utf-8"?>
<!-- Generator: Adobe Illustrator 25.3.1, SVG Export Plug-In . SVG Version: 6.00 Build 0)  -->
<svg version="1.1" xmlns="http://www.w3.org/2000/svg" xmlns:xlink="http://www.w3.org/1999/xlink" x="0px" y="0px"
	 viewBox="0 0 1080 1080" style="enable-background:new 0 0 1080 1080;" xml:space="preserve">
<style type="text/css">
	.st0{clip-path:url(#SVGID_4_);}
	.st1{clip-path:url(#SVGID_6_);}
	.st2{fill:#231F20;}
	
		.st3{clip-path:url(#SVGID_6_);fill:none;stroke:#231F20;stroke-width:25;stroke-linecap:round;stroke-linejoin:round;stroke-miterlimit:10;}
	.st4{clip-path:url(#SVGID_8_);}
	.st5{fill:url(#SVGID_9_);}
	.st6{fill:url(#SVGID_10_);}
	.st7{fill:url(#SVGID_11_);}
	.st8{fill:#CA52A9;}
	.st9{fill:#A33286;}
	.st10{fill:#6E2059;}
	.st11{fill:url(#SVGID_12_);}
	.st12{fill:url(#SVGID_13_);}
	.st13{fill:url(#SVGID_14_);}
	.st14{fill:#DC0094;}
	.st15{fill:#B50083;}
	.st16{fill:#8F0069;}
	.st17{fill:url(#SVGID_15_);}
	.st18{fill:url(#SVGID_16_);}
	.st19{fill:url(#SVGID_17_);}
	.st20{fill:#F722BE;}
	.st21{fill:#D1039C;}
	.st22{fill:url(#SVGID_18_);}
	.st23{fill:url(#SVGID_19_);}
	.st24{fill:url(#SVGID_20_);}
	.st25{fill:#A40778;}
	.st26{fill:#590042;}
	.st27{fill:#4E0739;}
	.st28{fill:url(#SVGID_21_);}
	.st29{fill:url(#SVGID_22_);}
	.st30{fill:url(#SVGID_23_);}
	.st31{fill:#E036B5;}
	.st32{fill:#850764;}
	.st33{fill:#63054A;}
	.st34{clip-path:url(#SVGID_25_);}
	.st35{fill:url(#SVGID_26_);}
	.st36{fill:url(#SVGID_27_);}
	.st37{fill:url(#SVGID_28_);}
	.st38{fill:#1B22C4;}
	.st39{fill:#1015A2;}
	.st40{fill:#0F1160;}
	.st41{fill:url(#SVGID_29_);}
	.st42{fill:url(#SVGID_30_);}
	.st43{fill:url(#SVGID_31_);}
	.st44{fill:#0100FA;}
	.st45{fill:#3939CB;}
	.st46{fill:#28287E;}
	.st47{fill:url(#SVGID_32_);}
	.st48{fill:url(#SVGID_33_);}
	.st49{fill:url(#SVGID_34_);}
	.st50{fill:#8EC1E1;}
	.st51{fill:#49A3DB;}
	.st52{fill:#387DA8;}
	.st53{fill:url(#SVGID_35_);}
	.st54{fill:url(#SVGID_36_);}
	.st55{fill:url(#SVGID_37_);}
	.st56{fill:#3890FC;}
	.st57{fill:#2A6FC2;}
	.st58{fill:#1B477D;}
	.st59{fill:url(#SVGID_38_);}
	.st60{fill:url(#SVGID_39_);}
	.st61{fill:url(#SVGID_40_);}
	.st62{fill:#4FF1F0;}
	.st63{fill:#11E7E7;}
	.st64{fill:#0EA5A6;}
	.st65{clip-path:url(#SVGID_42_);}
	.st66{fill:url(#SVGID_43_);}
	.st67{fill:url(#SVGID_44_);}
	.st68{fill:url(#SVGID_45_);}
	.st69{fill:#FC5DC2;}
	.st70{fill:#DA49E6;}
	.st71{fill:#C251FE;}
	.st72{fill:url(#SVGID_46_);}
	.st73{fill:url(#SVGID_47_);}
	.st74{fill:url(#SVGID_48_);}
	.st75{fill:#FE6451;}
	.st76{fill:#E6495E;}
	.st77{fill:url(#SVGID_49_);}
	.st78{fill:url(#SVGID_50_);}
	.st79{fill:url(#SVGID_51_);}
	.st80{fill:#00DBDE;}
	.st81{fill:#FC00FF;}
	.st82{clip-path:url(#SVGID_53_);}
	.st83{fill:none;stroke:#231F20;stroke-width:15;stroke-linecap:round;stroke-linejoin:round;stroke-miterlimit:10;}
	.st84{fill:none;stroke:#231F20;stroke-width:16;stroke-linecap:round;stroke-linejoin:round;stroke-miterlimit:10;}
	.st85{fill:none;stroke:#231F20;stroke-width:3;stroke-linecap:round;stroke-linejoin:round;stroke-miterlimit:10;}
	.st86{fill:none;stroke:#231F20;stroke-width:14.3963;stroke-linecap:round;stroke-linejoin:round;stroke-miterlimit:10;}
	.st87{fill:#231F20;stroke:#231F20;stroke-width:15;stroke-linecap:round;stroke-miterlimit:10;}
	.st88{clip-path:url(#SVGID_55_);}
	.st89{fill:url(#SVGID_56_);}
	.st90{fill:url(#SVGID_57_);}
	.st91{fill:url(#SVGID_58_);}
	.st92{fill:url(#SVGID_59_);}
	.st93{fill:url(#SVGID_60_);}
	.st94{fill:url(#SVGID_61_);}
	.st95{fill:url(#SVGID_62_);}
	.st96{fill:url(#SVGID_63_);}
	.st97{fill:url(#SVGID_64_);}
	.st98{fill:url(#SVGID_65_);}
	.st99{fill:url(#SVGID_66_);}
	.st100{fill:url(#SVGID_67_);}
	.st101{fill:url(#SVGID_68_);}
	.st102{fill:url(#SVGID_69_);}
	.st103{fill:url(#SVGID_70_);}
	.st104{fill:url(#SVGID_71_);}
	.st105{clip-path:url(#SVGID_73_);}
	.st106{fill:none;stroke:#231F20;stroke-width:18.0644;stroke-linecap:round;stroke-linejoin:round;stroke-miterlimit:10;}
	.st107{fill:none;stroke:#231F20;stroke-width:17.5966;stroke-linecap:round;stroke-linejoin:round;stroke-miterlimit:10;}
	.st108{fill:none;stroke:#231F20;stroke-width:16.4968;stroke-linecap:round;stroke-linejoin:round;stroke-miterlimit:10;}
	.st109{fill:#231F20;stroke:#231F20;stroke-width:16.4968;stroke-linecap:round;stroke-miterlimit:10;}
	
		.st110{clip-path:url(#SVGID_73_);fill:none;stroke:#231F20;stroke-width:18.0644;stroke-linecap:round;stroke-linejoin:round;stroke-miterlimit:10;}
	
		.st111{clip-path:url(#SVGID_73_);fill:none;stroke:#231F20;stroke-width:16;stroke-linecap:round;stroke-linejoin:round;stroke-miterlimit:10;}
	.st112{fill:url(#SVGID_74_);}
	.st113{fill:url(#SVGID_75_);}
	.st114{fill:url(#SVGID_76_);}
	.st115{fill:url(#SVGID_77_);}
	.st116{fill:url(#SVGID_78_);}
	.st117{fill:url(#SVGID_79_);}
	.st118{fill:url(#SVGID_80_);}
	.st119{fill:url(#SVGID_81_);}
	.st120{fill:url(#SVGID_82_);}
	.st121{fill:url(#SVGID_83_);}
	.st122{fill:url(#SVGID_84_);}
	.st123{fill:url(#SVGID_85_);}
	.st124{fill:url(#SVGID_86_);}
	.st125{fill:url(#SVGID_87_);}
	.st126{fill:url(#SVGID_88_);}
	.st127{fill:url(#SVGID_89_);}
	.st128{fill:url(#SVGID_90_);}
	.st129{fill:url(#SVGID_91_);}
	.st130{fill:url(#SVGID_92_);}
	.st131{fill:url(#SVGID_93_);}
	.st132{fill:url(#SVGID_94_);}
	.st133{fill:url(#SVGID_95_);}
	.st134{fill:url(#SVGID_96_);}
	.st135{fill:url(#SVGID_97_);}
	.st136{fill:url(#SVGID_98_);}
	.st137{fill:url(#SVGID_99_);}
	.st138{fill:url(#SVGID_100_);}
	.st139{fill:url(#SVGID_101_);}
	.st140{fill:url(#SVGID_102_);}
	.st141{fill:url(#SVGID_103_);}
	.st142{fill:url(#SVGID_104_);}
	.st143{fill:url(#SVGID_105_);}
	.st144{fill:url(#SVGID_106_);}
	.st145{fill:url(#SVGID_107_);}
	.st146{fill:url(#SVGID_108_);}
	.st147{fill:url(#SVGID_109_);}
	.st148{fill:url(#SVGID_110_);}
	.st149{fill:url(#SVGID_111_);}
	.st150{fill:url(#SVGID_112_);}
	.st151{fill:url(#SVGID_113_);}
	.st152{fill:url(#SVGID_114_);}
	.st153{fill:url(#SVGID_115_);}
	.st154{fill:url(#SVGID_116_);}
	.st155{fill:url(#SVGID_117_);}
	.st156{fill:url(#SVGID_118_);}
	.st157{fill:url(#SVGID_119_);}
	.st158{fill:url(#SVGID_120_);}
	.st159{fill:url(#SVGID_121_);}
	.st160{fill:url(#SVGID_122_);}
	.st161{fill:url(#SVGID_123_);}
	.st162{fill:url(#SVGID_124_);}
	.st163{fill:url(#SVGID_125_);}
	.st164{fill:url(#SVGID_126_);}
	.st165{fill:url(#SVGID_127_);}
	.st166{fill:url(#SVGID_128_);}
	.st167{fill:url(#SVGID_129_);}
	.st168{fill:url(#SVGID_130_);}
	.st169{fill:url(#SVGID_131_);}
	.st170{fill:url(#SVGID_132_);}
	.st171{fill:url(#SVGID_133_);}
	.st172{fill:url(#SVGID_134_);}
	.st173{fill:url(#SVGID_135_);}
	.st174{fill:url(#SVGID_136_);}
	.st175{fill:url(#SVGID_137_);}
	.st176{fill:url(#SVGID_138_);}
	.st177{fill:#FFFFFF;}
	.st178{fill:url(#SVGID_139_);}
	.st179{fill:url(#SVGID_140_);}
	.st180{fill:url(#SVGID_141_);}
	.st181{fill:url(#SVGID_142_);}
	.st182{fill:url(#SVGID_143_);}
	.st183{fill:url(#SVGID_144_);}
	.st184{fill:url(#SVGID_145_);}
	.st185{fill:url(#SVGID_146_);}
	.st186{fill:url(#SVGID_147_);}
	.st187{fill:url(#SVGID_148_);}
	.st188{fill:url(#SVGID_149_);}
	.st189{fill:url(#SVGID_150_);}
	.st190{fill:url(#SVGID_151_);}
	.st191{fill:url(#SVGID_152_);}
	.st192{fill:url(#SVGID_153_);}
	.st193{fill:url(#SVGID_154_);}
	.st194{fill:url(#SVGID_155_);}
	.st195{fill:url(#SVGID_156_);}
	.st196{fill:url(#SVGID_157_);}
	.st197{fill:url(#SVGID_158_);}
	.st198{fill:url(#SVGID_159_);}
</style>
<g id="Font__x26__source">
</g>
<g id="Initial_logo">
</g>
<g id="Revised">
</g>
<g id="Final">
	<g>
		<g>
			<circle class="st177" cx="200.2" cy="660.82" r="23.11"/>
			<circle class="st177" cx="359.27" cy="660.82" r="23.11"/>
		</g>
		<g>
			<path class="st177" d="M350.3,573.65H203.35c-9.37,0-17.63-5.63-21.05-14.35l-41.86-106.75c-2.95-7.53-1.99-16.01,2.56-22.69
				c4.56-6.68,12.1-10.67,20.19-10.67l245.39-1.33c0.02,0,0.04,0,0.07,0c6.63,0,12.02,5.36,12.06,11.99
				c0.04,6.66-5.33,12.09-11.99,12.12l-245.46,1.33c-0.17,0-0.24,0-0.33,0.14c-0.1,0.14-0.07,0.2-0.03,0.3l41.48,105.79h144.38
				l21.56-41.06H236.48c-6.66,0-12.06-5.4-12.06-12.06s5.4-12.06,12.06-12.06h153.79c4.22,0,8.14,2.21,10.32,5.82
				c2.18,3.61,2.32,8.1,0.35,11.84l-31.56,60.09C365.65,569.22,358.34,573.65,350.3,573.65z"/>
			<path class="st177" d="M412.39,614.12h-246.9c-4.39,0-8.34-2.69-9.94-6.78L89.23,438.19L34.11,416.7
				c-5.49-2.14-8.21-8.33-6.07-13.83c2.14-5.49,8.33-8.22,13.83-6.07l59.48,23.19c2.78,1.08,4.97,3.28,6.06,6.05l65.37,166.72
				h239.62c5.9,0,10.68,4.78,10.68,10.68S418.29,614.12,412.39,614.12z"/>
		</g>
	</g>
	<g>
		<path class="st177" d="M486.59,469.67c13.61,0,19.96,6.53,21.78,10.89v-9.07h14.88v62.24c0,21.41-13.79,32.3-35.57,32.3
			c-12.34,0-24.14-3.81-30.85-11.79l7.8-8.89c6.71,5.81,14.15,8.71,22.32,8.71c12.52,0,21.41-7.08,21.41-19.78v-9.98
			c-1.81,3.99-9.8,10.34-21.78,10.34c-18.15,0-29.58-11.98-29.58-32.3C457.01,481.83,468.81,469.67,486.59,469.67z M490.76,522.66
			c10.16,0,18.51-6.71,18.51-20.32c0-13.07-7.98-20.69-18.33-20.69c-9.98,0-18.15,6.9-18.15,20.51
			C472.8,515.95,480.6,522.66,490.76,522.66z"/>
		<path class="st177" d="M554.63,532.83h-14.88v-61.34h14.88v9.07c3.45-6.35,10.16-10.89,18.33-10.89c3.09,0,5.81,0.72,8.35,2.18
			l-3.99,12.16c-2-0.73-4.36-1.27-6.71-1.27c-8.53,0-15.97,5.26-15.97,20.51V532.83z"/>
		<path class="st177" d="M648.45,501.98c0,19.96-12.7,32.66-33.21,32.66c-20.51,0-33.21-12.7-33.21-32.66
			c0-20.14,12.7-32.3,33.21-32.3C635.75,469.67,648.45,481.83,648.45,501.98z M597.09,501.98c0,11.43,5.81,20.69,18.15,20.69
			c12.52,0,18.33-9.25,18.33-20.69c0-11.61-5.81-20.33-18.33-20.33C602.9,481.65,597.09,490.36,597.09,501.98z"/>
		<path class="st177" d="M650.8,471.49h15.97l15.06,34.48c0.73,1.45,0.91,2.18,1.09,3.27c0.36-1.09,0.54-2,1.27-3.45l18.15-36.11
			l19.05,35.93l1.27,3.63c0.36-1.09,0.54-2.18,1.09-3.45l14.15-34.3h15.97l-29.4,63.15l-20.69-38.65c-0.73-1.27-0.91-2-1.09-3.27
			c-0.36,1.27-0.54,2.18-1.27,3.45l-20.32,38.47L650.8,471.49z"/>
		<path class="st177" d="M789.62,521.76c5.63,0,10.16-2,14.15-4.36l8.17,8.89c-5.99,5.63-14.34,8.35-23.59,8.35
			c-19.96,0-31.76-13.25-31.76-32.48c0-19.78,12.16-32.48,32.3-32.48c8.89,0,17.06,2.54,23.05,8.17l-8.53,8.89
			c-3.63-2.54-7.98-4.54-13.61-4.54c-12.16,0-18.15,8.71-18.15,19.96C771.66,513.59,778.01,521.76,789.62,521.76z"/>
		<path class="st177" d="M852.04,469.67c20.87,0,30.85,13.79,30.85,33.03c0,0.91-0.18,2.72-0.18,3.63h-47.18
			c0,10.89,7.98,16.88,20.14,16.88c7.8,0,14.34-2.18,19.6-4.9l5.44,9.25c-3.27,2.18-12.7,7.08-26.49,7.08
			c-23.59,0-34.12-14.16-34.12-32.12C820.11,484.19,830.99,469.67,852.04,469.67z M835.53,496.53h32.66
			c-0.73-10.16-7.08-16.15-16.15-16.15C842.79,480.38,836.26,486.55,835.53,496.53z"/>
		<path class="st177" d="M910.29,532.83h-14.88v-61.34h14.88v9.07c3.45-6.35,10.16-10.89,18.33-10.89c3.09,0,5.81,0.72,8.35,2.18
			l-3.99,12.16c-2-0.73-4.36-1.27-6.71-1.27c-8.53,0-15.97,5.26-15.97,20.51V532.83z"/>
		<path class="st177" d="M961.46,454.07c0,5.44-3.99,8.89-9.07,8.89s-9.07-3.45-9.07-8.89c0-5.44,3.99-9.26,9.07-9.26
			S961.46,448.62,961.46,454.07z M944.76,471.49h14.88v41.19c0,6.17,0.73,9.07,6.35,9.07c0.73,0,1.09,0,2.18-0.18l1.09,10.89
			c-2.54,0.73-4.9,1.09-9.07,1.09c-11.98,0-15.42-7.62-15.42-20.87V471.49z"/>
		<path class="st177" d="M1005.37,469.67c13.61,0,19.96,6.53,21.78,10.89v-9.07h14.88v61.34h-14.88v-8.53
			c-1.81,3.99-9.8,10.34-21.78,10.34c-18.15,0-29.58-11.98-29.58-32.3C975.79,481.83,987.59,469.67,1005.37,469.67z M1009.55,522.66
			c10.16,0,18.51-6.71,18.51-20.32c0-13.07-7.98-20.69-18.33-20.69c-9.98,0-18.15,6.9-18.15,20.51
			C991.58,515.95,999.38,522.66,1009.55,522.66z"/>
	</g>
</g>
</svg>
